# xmcd
#
# Track frame offsets:
# 150
# 30193
# 53983
# 72609
# 90865
# 105251
# 125973
#
# Disc length: 1949 seconds
#
#
# Revision: 0
# Processed by: cddbd v1.5.2PL0 Copyright (c) Steve Scherf et al.
# Submitted via: FreeRIP 2.945 
#
DISCID=54079b07
DTITLE=The Doors - Live La Forum
DYEAR=1900
DGENRE=Blues
TTITLE0=Tell all the People
TTITLE1=Love me two Time
TTITLE2=Who Scared you
TTITLE3=Spanish Caravan
TTITLE4=The Cristal Ship
TTITLE5=Wild Child
TTITLE6=Touch me
EXTD=
EXTT0=
EXTT1=
EXTT2=
EXTT3=
EXTT4=
EXTT5=
EXTT6=
PLAYORDER=
